<?xml version="1.0" standalone="no"?>
<!DOCTYPE svg PUBLIC "-//W3C//DTD SVG 20010904//EN"
 "http://www.w3.org/TR/2001/REC-SVG-20010904/DTD/svg10.dtd">
<svg version="1.0" xmlns="http://www.w3.org/2000/svg"
 width="36.000000pt" height="36.000000pt" viewBox="0 0 36.000000 36.000000"
 preserveAspectRatio="xMidYMid meet">
<metadata>
Created by potrace 1.16, written by Peter Selinger 2001-2019
</metadata>
<g transform="translate(0.000000,36.000000) scale(0.003913,-0.003913)"
fill="#000000" stroke="none">
<path d="M1950 8034 c-177 -160 -186 -660 -18 -974 104 -195 245 -325 558
-512 170 -102 451 -241 627 -309 17 -6 35 1 82 31 92 59 241 203 277 267 43
75 96 127 181 177 l71 42 -156 28 c-200 36 -498 111 -674 170 -298 100 -480
204 -638 365 -99 101 -144 167 -188 273 -22 54 -26 78 -26 168 0 58 4 137 8
176 7 57 5 76 -8 102 -22 42 -46 41 -96 -4z"/>
<path d="M7141 8044 c-24 -30 -28 -94 -10 -159 15 -54 15 -158 0 -225 -50
-215 -264 -446 -545 -587 -217 -109 -612 -226 -996 -293 -69 -12 -126 -23
-128 -25 -2 -2 23 -17 55 -34 84 -45 150 -106 179 -165 32 -63 205 -235 292
-288 l60 -37 133 58 c336 145 629 312 820 467 172 140 275 299 336 520 25 91
27 114 27 289 1 207 -9 267 -61 374 -30 62 -94 131 -122 131 -11 0 -29 -12
-40 -26z"/>
<path d="M4331 7008 c-30 -5 -88 -24 -130 -44 -167 -79 -307 -113 -422 -102
-27 3 -49 2 -49 -3 0 -9 99 -59 117 -59 20 0 16 -14 -21 -62 -44 -57 -128
-115 -202 -138 l-59 -18 77 -7 c96 -9 197 1 263 26 28 10 50 19 51 19 7 0 37
-87 38 -110 1 -16 4 -30 7 -30 15 0 68 71 74 99 4 17 11 31 16 31 11 0 12 6
-5 -83 -8 -42 -22 -89 -31 -106 -8 -17 -12 -31 -7 -31 13 0 64 41 87 70 l20
25 6 -85 c6 -87 23 -135 63 -178 l21 -23 10 48 11 48 16 -30 c26 -48 77 -89
173 -140 50 -25 99 -55 111 -66 24 -22 40 -24 47 -6 3 8 43 33 89 57 128 67
157 87 187 135 16 25 31 42 35 38 3 -3 6 -24 6 -47 l0 -40 30 29 c42 40 65
107 65 187 0 38 1 68 3 68 2 0 15 -14 29 -30 27 -33 83 -67 83 -51 0 5 -4 12
-9 15 -17 11 -56 196 -40 196 4 0 13 -16 19 -35 12 -37 55 -95 71 -95 5 0 9
14 9 31 0 30 25 95 40 104 4 2 29 -4 57 -15 66 -25 155 -34 249 -25 l77 7 -49
17 c-58 19 -129 60 -166 95 -29 27 -78 89 -78 98 0 3 20 11 44 17 25 6 57 21
71 34 l26 22 -108 1 c-129 2 -202 19 -331 80 -52 24 -113 49 -136 55 -49 14
-476 19 -555 7z"/>
<path d="M1910 6555 c-340 -57 -678 -246 -734 -411 -21 -63 -20 -119 4 -172
29 -64 172 -233 289 -342 57 -52 162 -154 234 -225 150 -149 224 -197 389
-252 169 -57 377 -80 544 -62 38 5 138 11 222 15 l152 7 0 -24 c1 -41 11 -101
32 -193 16 -71 43 -134 128 -302 127 -248 135 -278 126 -456 -26 -514 -12
-897 39 -1103 31 -122 55 -283 55 -362 0 -32 -9 -99 -20 -149 -29 -131 -38
-418 -16 -541 32 -183 72 -252 95 -166 6 21 11 58 11 83 1 115 29 260 66 343
33 72 39 95 45 189 11 173 35 196 157 159 43 -14 81 -20 94 -16 34 11 82 59
160 165 39 52 90 116 113 141 47 50 47 52 69 159 22 112 37 237 46 405 6 104
15 173 31 225 28 95 30 242 6 430 -9 74 -22 173 -28 220 -15 121 -53 273 -90
366 -95 238 -183 500 -209 622 -11 53 -27 164 -35 245 -24 234 -46 301 -134
402 -30 34 -62 86 -80 130 -33 78 -91 290 -91 331 0 13 -3 24 -6 24 -3 0 -43
-19 -87 -42 -60 -31 -103 -64 -161 -121 -147 -147 -235 -159 -425 -56 -42 23
-110 60 -151 82 -41 22 -126 69 -188 104 -272 155 -416 188 -652 148z m-62
-406 c43 -14 102 -48 102 -59 0 -4 -8 -11 -17 -14 -27 -10 -83 -50 -83 -58 0
-5 13 -8 29 -8 77 0 218 -64 265 -121 34 -40 33 -49 -8 -49 -52 0 -51 -15 2
-35 26 -10 103 -46 172 -80 197 -98 299 -124 492 -126 68 0 126 -3 130 -5 19
-12 -65 -149 -127 -207 -48 -46 -159 -101 -235 -116 -217 -45 -518 28 -745
182 -99 67 -250 222 -321 327 -70 106 -130 231 -121 254 8 21 100 72 175 97
110 37 213 43 290 18z"/>
<path d="M6938 6550 c-83 -21 -204 -78 -394 -187 -65 -37 -181 -99 -257 -138
-127 -65 -142 -70 -200 -70 -83 1 -126 23 -213 111 -67 67 -153 127 -231 159
-39 16 -35 22 -53 -80 -29 -163 -96 -326 -165 -403 -77 -85 -107 -177 -126
-381 -23 -252 -59 -392 -191 -736 -104 -272 -132 -382 -153 -595 -13 -134 -26
-236 -37 -278 -15 -61 -4 -180 27 -287 20 -68 27 -119 30 -205 4 -144 19 -278
44 -406 23 -117 34 -149 55 -157 8 -3 48 -50 88 -104 167 -227 180 -236 291
-203 41 12 82 20 92 19 39 -8 55 -49 63 -164 7 -95 13 -121 45 -190 45 -100
55 -144 67 -301 11 -133 21 -174 44 -174 18 0 31 35 55 145 28 131 34 233 21
380 -13 158 -17 192 -36 274 -21 91 -8 224 43 441 13 58 31 170 38 250 17 172
19 606 4 803 -16 222 -10 251 115 502 127 255 157 343 168 495 l3 35 105 1
c58 0 159 -5 225 -11 289 -27 528 13 737 122 108 57 184 120 267 218 35 42 81
87 101 100 84 53 350 344 392 430 56 111 1 252 -136 351 -262 191 -677 295
-928 234z m626 -401 c67 -16 159 -54 207 -86 45 -29 45 -30 -3 -131 -76 -163
-226 -342 -380 -457 -77 -58 -222 -133 -318 -165 -268 -90 -545 -60 -690 76
-51 48 -114 143 -126 189 l-6 23 124 1 c203 2 315 31 528 136 69 34 142 68
162 75 43 16 41 30 -6 30 -43 0 -48 7 -29 37 36 54 198 133 275 133 40 0 35
17 -17 48 -24 15 -43 32 -41 37 4 17 82 55 128 64 53 9 127 5 192 -10z"/>
<path d="M4245 2434 c-46 -24 -73 -52 -136 -145 -76 -113 -109 -127 -231 -93
-49 14 -66 15 -99 5 -55 -17 -123 -81 -156 -150 -24 -49 -28 -68 -28 -146 0
-146 35 -200 250 -380 115 -96 121 -104 156 -198 29 -80 75 -137 134 -167 42
-21 62 -24 140 -23 49 1 137 10 195 19 130 21 114 21 244 0 156 -26 280 -25
332 2 57 29 108 90 133 158 33 93 41 104 141 189 223 190 262 245 268 380 6
137 -47 244 -148 299 -55 30 -81 32 -140 11 -23 -8 -63 -15 -87 -15 -39 0 -50
5 -82 38 -20 20 -59 71 -88 113 -59 87 -108 119 -184 119 -57 0 -145 -23 -213
-55 l-53 -25 -54 24 c-116 54 -237 70 -294 40z"/>
</g>
</svg>
